<?xml version="1.0" encoding="UTF-8"?>
<svg xmlns="http://www.w3.org/2000/svg" viewBox="0 0 64 64" width="64" height="64" role="img" aria-label="GradNeXion">
  <defs>
    <linearGradient id="mark-bg" x1="8" y1="6" x2="56" y2="58" gradientUnits="userSpaceOnUse">
      <stop offset="0" stop-color="#2563eb"/>
      <stop offset="0.55" stop-color="#4f46e5"/>
      <stop offset="1" stop-color="#0f172a"/>
    </linearGradient>
    <linearGradient id="mark-line" x1="16" y1="21" x2="49" y2="45" gradientUnits="userSpaceOnUse">
      <stop offset="0" stop-color="#bfdbfe"/>
      <stop offset="1" stop-color="#ffffff"/>
    </linearGradient>
  </defs>
  <rect x="4" y="4" width="56" height="56" rx="14" fill="url(#mark-bg)"/>
  <path d="M13 27.8 32 17l19 10.8L32 38.6 13 27.8Z" fill="#ffffff"/>
  <path d="M21.5 34.2v7.2c0 3.2 4.7 5.8 10.5 5.8s10.5-2.6 10.5-5.8v-7.2L32 40.1 21.5 34.2Z" fill="url(#mark-line)"/>
  <path d="M49.5 29.2v10.2" stroke="#bfdbfe" stroke-width="3" stroke-linecap="round"/>
  <circle cx="49.5" cy="43.2" r="3.2" fill="#bfdbfe"/>
  <circle cx="18" cy="20" r="2.2" fill="#93c5fd"/>
  <circle cx="46" cy="17" r="2.2" fill="#93c5fd"/>
  <path d="M20.2 20.8c5.1-3.2 13.8-4.6 23.6-3.4" fill="none" stroke="#93c5fd" stroke-width="1.8" stroke-linecap="round" opacity="0.8"/>
</svg>
